<?xml version="1.0" encoding="utf-8"?>
<!-- Generator: Adobe Illustrator 23.0.1, SVG Export Plug-In . SVG Version: 6.00 Build 0)  -->
<svg version="1.1" id="Layer_1" xmlns="http://www.w3.org/2000/svg" xmlns:xlink="http://www.w3.org/1999/xlink" x="0px" y="0px"
	 viewBox="0 0 1920 1080" style="enable-background:new 0 0 1920 1080;" xml:space="preserve">
<g>
	<path d="M694.7,699.3c-3.8-3.4-8.5-5-14.1-4.5c-7.6,0.7-7.9-2.6-14-1.6c-1.1,0.2-2.3-0.2-2.7-1.1c-2.1-4.6-7.2-6.2-11.8-8.2
		c-6.6-2.9-8.8,0.6-11.6,3.9c-4.7,5.7-9.5-0.7-11.7-2.5c-2.5-2-1.3-3.8,3.4-9.6c4.3-5.3-1.7-6.7-3.5-14.1
		c-1.1-4.7-7.5-9.5-13.8-11.5c-11.1-3.5-17.6,0.4-24.9-7.7c-4-4.5-6.6-7.6-11.5-8.4c-4.2-0.7-2.6-5.3-10.2-7.9
		c-2.8-1-1.7-5.4-7.3-4.2c-4.1,0.9-6.6,4.2-11.5,2c-5.1-2.2-9.6,0.4-12.8-3.1c-1.5-1.7-3.9-2.3-5.9-3.4c-1.6-0.9-3.1-1.3-4.7,0.1
		c-1.5,1.2-5.7,2.6-6.2,0.9c-0.1-0.5,0-1.1,0-1.6c-0.2-2.7-1.5-3.5-3.9-2c-3.7,2.4-7.4,3.1-14.8,5.6c-6,2-4.3,5.6-7.4,9.2
		c-4.2,4.9-4.4,4.9-10.4,0.9c-6.1-4.1-10.6-0.5-14.5,0.8c-5.1,1.8-5.5-1.8-11.1-5.2c-6.6-4-4.1-11-3-24.5c0.4-4.6-5.6-7.7-10-7.6
		c-2.3,0.1-14.4,0.7-15,0.6c-2-0.1-3.4-1.6-2.4-3c3.3-5.3,0.6-7,3.7-12.6c2.3-4,3.4-8.3,4.4-12.6c0.8-3.7-2.7-4.5-10.6-3.8
		c-4.8,0.4-7,1.9-8.1,6c-0.8,2.9-2.5,5.4-4,8.1c-0.9,1.6-2.3,2.7-4.6,2.5c-8-0.8-9.8,3.8-13.7,0.7c-4.8-3.8-9-7.9-12.7-12.5
		c-1.7-2.1-4.7-12.7-2.5-22.6c2.3-10.5-2-9.4,1-16.8c3.3-8.1,7.5-3.7,12.6-9.4c3.2-3.5,6.2-4.3,10-3.7c4.8,0.8,9.9,0.5,14.1,3.3
		c0.2,0.1,0.4,0.1,0.6,0.2c2.1,0.5,3.8-0.5,4-3.2c0.5-6,8.2-3,11.7-3.8c2.5-0.6,4.8,0,6.8,1.3c7.1,4.8,11.1-3.3,14.1,3.2
		c2.3,5,2.2,11.5,9.8,21.3c4.5,5.9,7.6,3.3,7.9-2.1c0.9-15.7-17.5-23.7,0.5-37.5c22.8-17.4,19.2-10.8,21.2-19.5c0.5-2,0.5-4,0.4-6
		c-0.3-5.7,5.4-4.5,5.3-11.3c-0.1-4.5,5.9-4.1,5.5-10.6c-0.2-3,1.1-2.7,15.4-7.4c7.9-2.6-1.9-4.8,4.3-11.5c3.6-3.8,6.5-7.4,12.2-7.3
		c3.6,0.1,4.5-3,6.3-4.3c1.6-1.2,5.5-0.9,4.7,2c-2,7,2.6,8.3,5.3,6c7.8-6.6,19.9-7.5,18.5-11.7c-0.5-1.7-2.7-1.6-4.4-1.8
		c-6.7-0.7-14.2-5.2-13.5-10.6c0.4-3-0.2-6.3,3.2-8.5c0.2-0.1,0.2-0.3,0.3-0.5c1.2-2-0.1-4.2-2.7-4.6c-3.7-0.6-7.1,0.9-12.7,2.2
		c-1.4,0.3-2.8-0.3-1.5-1.6c9.4-10.1,18.6-7.8,30.8-7.1c13.3,0.7,9.1-5.9,23-8.8c1.7-0.3,2.8,0.5,2.2,1.7c-2.6,4.8-4.3,10-7.7,14.5
		c-1.8,2.4-2.9,4.9-3.9,7.5c-1.9,4.7,4.3,2.9,5.6,3.2c4.6,1,9.6-0.1,13.9,2.4c2.3,1.4,4.1-2.1,6.6,0.1c0.9,0.8,1.7,1.6,2.7,2.3
		c1.3,0.9,3.1,0.4,3.8-0.9c2.5-5-3.2-3.7-3.6-10.5c-0.1-0.9-0.5-1.8-0.7-2.7c-1.1-5.6-5.4-0.3-12.2-6.7c-2.3-2.1-2.4-2-1-4.6
		c0.6-1.1,2.6-4,1.8-5.1c-1.8-2.5-1.2-4.8,0-7.2c0.8-1.7,0.4-3.9-3.5-11.5c-0.9-1.7-2.1-2.2-4.2-1.7c-2.7,0.7-5.4,1.2-7.8,2.5
		c0.5-1.1,1.6-1.7,2.6-2.4c3.8-2.8,2.6-5.1,0.6-5.7c-2.6-0.8-8.4-1.3-10.4-5c-3.3-6-10-4.9-8.4-9.5c1.3-3.8-0.3-6.8-3.5-9.4
		c-5.2-4.2-1.2-7-5-10.4c-2-1.7-3.5-3.7-5.2-5.6c-4.8-5.7-7.9,5.5-12.3,9.7c-5.6,5.4-11.8-0.3-14-5.9c-2.9-7.5-2-10.8-7.1-12.2
		c-4.7-1.2-4.3-2.6-13.9-10.5c-5.3-4.4-4.1,2-17.4-1.9c-8.7-2.6-12.3,0.4-11.2,4.2c0.5,1.6,3.2,3.8,0.4,7.7
		c-1.5,2.1,0.7,4.2,1.7,6.1c5.2,9.6-8.6,7.1-2.5,14.9c13.8,17.3,6.4,21.6-3.4,28.3c-1.7,1.2-2.4,2.6-1.4,4.3
		c2.1,3.5,2.1,7.4,2.9,11.2c0.7,3.3-0.9,5.7-3.5,7.8c-2.1,1.7-4.1,1.8-6.3,0c-5.6-4.7-9.5-10-9.1-16.9c0.4-7.6-1.5-10.7-11.3-10.3
		c-7,0.3-5.9-2.2-23.2-9.4c-8.9-3.7-11.3-6.3-16.7-4.5c-4,1.4-3.4-2.5-6.1-8.8c-2.9-6.8-8.1-1.6-8.9-7.5c-0.9-7.5,3.1-15.2,7.8-22.8
		c2.1-3.5,4.4-6.7,9.9-7.1c1.6-0.1,2.9-1.1,2.9-2.6c0-3.4,6.9-7.3,11.5-8.1c3.2-0.5,4.9-2.9,6.7-4.9c3.3-3.7-1.7-4.9,2-7.5
		c2.3-1.5,3.9-3.3,4.3-5.9c0.2-1.5,1.4-2,2.8-1.2c5.8,3.2,9.3-0.6,12.3-0.8c4.2-0.2,6.5-2.7,8.9-5.1c2-2,2.5-4.2,0.4-6.5
		c-7.5-8,7.9-10.3-2.5-15.1c-1.7-0.8-10.4-4.6-13-5c-2.5-0.4-4.8,1.4-4.5,3.5c0.3,2.6,2.7,5.3-0.2,7.1c-5,3.2-3.3,7.6-6.8,11
		c-3.6,3.6-10.4-1.4-7.6-7.2c0.7-1.4,1.4-2.7,0.5-4.2c-1-1.6-2.5-3-4.3-4c-3.9-2.1-5.4,2.8-6.1,4c-1.8,2.8-4.7-2-5.9-4.4
		c-2.5-5.1-8.2-2.2-5.6-7c2.9-5.3-2.4-3.9-4.9-11.6c-1.1-3.3-4.9-6.5-8.7-6.6c-2.4-0.1-9.5,5.5-9.1,7.6c1.2,6.7-3.8,9.4,1.4,11.6
		c3.4,1.4,9,1.1,9.1,6.4c0,1.5,0.5,2.8,1.5,4.1c2.8,4-4.1,3.8-7.8,8.7c-0.7,0.9-2.5,1.1-2.7-0.5c-0.2-2.1-0.9-3.9-3.6-4.8
		c-9.9-3.3-7,5.6-16,5.5c-12.5-0.2-26.5,0.2-33.1-9c-0.7-1-1.9-1.6-3.3-1.4c-4.4,0.6-13.1,3.2-10.2,6c0.4,0.4,1.1,0.6,1.5,1.1
		c1.2,1.5,0.1,8.1-4.7,4.5c-8.3-6.1-30.8,1.9-32.4-2.6c-0.9-2.4,5.7-2.4,3-6.1c-5-6.7-11.7,0.9-23.6-4.7c-7-3.3-14.2-8.4-23.6-4.5
		c-2.8,1.2-4.3-0.8-5.7-1.7c-2.7-1.8-2.5-1-5.5,0.7c-4.8,2.7-5.7-0.3-10.5-4.7c-4.5-4.1-5.4,4.8-12.4,1.6c-1.5-0.7-2-0.3-15,3.4
		c-6.5,1.8-12.4,0.2-18.3,5.7c-1.7,1.6-3.4,2.1-5.7,1.7c-5-0.8-9.6-2.4-13.7-4.9c-16.1-9.6-35.1-1.7-45.2-8
		c-2.2-1.4-4.6-1.5-10.8-1.4c-9.3,0.2-7.1-3.7-15.3-3.9c-3.4-0.1-12.7-0.8-16-3.6c-1.9-1.6-5.1-0.3-6.9,1.4
		c-6.9,6.3-16.8-0.8-32.5,18.4c-3.1,3.8-6.4,2.2-10.6,3.1c-2.9,0.6-5.8,4.8-0.8,6.9c1,0.4,2,0.8,3,1.1c7.5,2.5,3.8,7,13.8,11.1
		c4,1.6,6.3,5.8,2.4,6.2c-3.1,0.4-6.1,0.5-8.1-2.2c-1-1.4-2.8-1.9-4.6-1.1c-11.5,6-16.1,7.7-13.2,10c5.1,3.9,3.1,8.3,9.8,8.5
		c3.9,0.2,7.8,0.5,11.7,0.9c6,0.5,9.4-4,10.6-0.6c3.1,9.1,2.4,6.4-18.5,14.8c-2.6,1-4.8,2.5-6.3,4.7c-3.6,5.1,1.4,3.9,6,14.5
		c0.9,2.1,3.8,3.4,6.2,4.8c4.8,2.8,8.2-2.8,8.9,3.1c0.1,0.9,0,1.8,0.2,2.7c1.1,6.9,5.8-0.6,12.1,3.2c1.1,0.6,2.5,1.1,3.7,0.4
		c2.4-1.4,5-0.8,7.6-0.8c1.5,0,3.1-1.1,4.3,0c1.4,1.4-0.1,2.7-0.7,4c-1.1,2.2-2.8,4.1-5.1,5.6c-6.5,4.3-12.9,8.8-20.4,11.8
		c-6.9,2.7-4.4,6.6-13.1,8.5c-3,0.6-1.5,5.2,5.7,0.1c11.1-7.8,16.6-1.4,35.5-18.6c8.2-7.5,13.4-6.2,13.6-13.1
		c0.3-10.1,14-18.8,15.4-16.7c0.5,0.8-1,1.7-2.7,3.5c-2.8,2.9-4.8,10.3,0.1,10c6.3-0.5,15.3-4.9,16.4-10.7c0.7-3.3,4.4-4.2,7.4-2.2
		c1.4,0.9,7.2,6.7,19.2,7.1c7.3,0.2,22.7,3.5,28,10.8c1,1.3,3.6,3.1,6.1,2.1c2.9-1.1,9.1-0.1,9.5,2.6c0.2,1.6-0.8,5,2.9,5.3
		c2.5,0.2,2.7,1.4,2.3,3c-1.2,5.4,7.2,0.6,8.6,8.8c1.1,7,6.2,1.4,10.9,11.5c1.4,3,5.5,5.6,6.5,10c0.3,1,0.9,2.1,1.8,2.9
		c6.6,5.6,4.6,9.7,9.8,12c6.5,3,11.9,7.3,18.2,10.7c5.3,2.8,6.2,8.8,0.2,8c-0.6-0.1-1.3-0.3-1.9-0.4c-2.7-0.2-4.1,1.3-3.3,3.4
		c1.1,3,4.8,5.3,2.7,13.1c-4.3,16-0.8,28.7-1.3,32.7c-0.7,5.6,4.4,12.1,7.4,14.8c5.6,5.2,0.4,9.5,11.4,19.3c5,4.4,14,10.9,15.3,11.9
		c6.3,4.7,0,5.7,11.2,20.7c6.7,8.9,8.2,10,7.6,11.9c-1.9,6.2,10.9,4.9,12,16.1c0.3,3.2,2.8,4.9,9.9,10.5c2.7,2.1,3.7-0.6,2.9-1.8
		c-4.5-6.7,3,9.5-23.3-37.8c-3.1-5.5-3.2-6.9-1.8-7.5c1.4-0.6,4.6,0.2,5.9,2.4c2.1,3.8,5.2,13.3,13.5,19.1
		c0.4,0.3,18.9,20.2,25.8,29c9.4,12-1,13.4,4.9,18.4c1.8,1.6,3.6,3.4,6,4.1c8.1,2.6,14,8.7,22.9,10.1c1,0.2,2,0.8,2.8,1.4
		c3.8,2.7,8.5,3.6,13.1,4.7c7.6,1.8,6.2-5.2,15.1-0.7c5,2.5,8.3,11.2,24.6,13.3c12,1.6,6.2,0.4,14.7,8.3c7.3,6.9,2.1,11,8.2,11.4
		c3,0.2,4.3,2.1,7.6,5.7c4.9,5.3,6.1,1.2,10.9,5.5c1,0.9,2,1.9,3.5,2.4c1.3,0.4,2.8-0.1,3.2-1.2c0.6-2.1-0.1-3.9,2.9-5.8
		c5-3.2,6.5,2,11.5,11.7c0.3,0.5,0.3,1.1,0.2,1.6c-0.7,4,0.2,8,0.6,12c0.6,5.7-4.9,3.7-8.2,11.2c-0.8,1.9-2.1,3.6-4.1,4.9
		c-3.4,2.3-1.1,2.5-5.6,10.3c-2.1,3.8,1.4,6,2.5,7.3c2.3,2.8,0.8,3.5-1.6,6.1c-4.8,5.3-5,10.6-0.1,15.5c8.3,8.3,19.3,31.5,20.3,33.5
		c4,8,1.6,13.9,13,18.5c13.1,5.2,23.2,9,24,28c0.6,14.3-6.7,29.7-7.5,50.5c-1.9,49.5-5.8,24.8-11,52.3c-0.3,1.4-0.4,3,0.2,4.3
		c2.2,5.1-3.3,7.3-1.5,15.5c1.1,4.8,7,1.6,6,6.5c-4.7,22.9-4.3,23.3-8.4,23.4c-3.8,0.1-4.4,1.8-2.4,7.2c2.3,6.3-4.9,5.2-2.5,14.6
		c2.6,10.3,1.6,12.8,5,16.2c5.6,5.5-4.4,10.1,2,14.6c5.9,4.2,20.2,9.4,22,12.4c3.7,6.4,14.2,3,21.7-0.2c1.3-0.6,1.4-2,0.2-2.7
		c-4-2.5-11.6-4.8-12.9-12.9c-1.3-8.1-7.4-6.9-5.6-14.7c1.6-6.8,8.2-4.5,9.5-11.1c1.1-5.4,11.5-11,5.3-16c-4.4-3.5-6.2-4.7-3.8-9.8
		c2.8-6,8.8-11.2,12.1-15.6c1.1-1.4,2.1-2.6,4.1-3.3c1.7-0.6,1.6-2.3-0.3-2.8c-6.3-1.4-7.5-9.8-1.2-8.3c8,1.9,9.3,3.1,10.4-5.2
		c2-15.7,3.1-2.2,23.7-13.4c4.8-2.6,7.8-6.2,5.3-10.5c-9.9-16.5-1.2-10.6,5.5-9.4c9.8,1.8,12.2-4,15.8-10.8c6-11.6,5-2.6,15-20.4
		c1.3-2.3,2.4-4.8,4.5-6.6c2.3-2,3.1-4.3,3.2-7c0.8-21.3,14.4-19.2,19-23.6c7-6.7,12.9,0,19.5-8.4c3.1-4,15.3-28.9,13.3-39.6
		c-1.8-9.5,0.3-9.6,4.8-14.5C734.2,707,705.9,709.3,694.7,699.3z"/>
	<path d="M228.8,204.5c9.1,2.4,8.3,9.1,14.3,7.2c19.4-6.1,7.5-8.2,22-17.4c2.3-1.4,4.7-2.5,8-2.5c-1,2.7-7.7,4.9-10,10.2
		c-2.9,6.8,5.2,5.1,4.2,11c-0.8,4.8,5.5,4.2,20.7,4.8c-8.8,2.2-21,3.9-12.7,10.2c3,2.3,5.4,2.1,8.5,2.1c9.6-0.1,6.1,5,11.8,5.6
		c8.7,0.9,24-0.7,30.2-4.7c5.8-3.8,5.8-1.3,13.1,1.9c5.7,2.5,17.5,2.1,14.8-3.6c-0.2-0.3-0.5-0.6-0.7-0.9c-1.7-3.3,0.8-2.6,4.7-4
		c1-0.4,1.1-1.8,0.3-2.3c-6.8-4.3-15.1-6.1-16.2-11.1c-0.8-3.8-2.6-7.3-4.1-10.9c-2.5-6.2,1-7.6,2-10.3c1.9-4.9-6.7-8-11.2-3
		c-4.4,4.9-9.6,1-8.2,7.9c0.9,4.7,3.8,9.9,1,9.6c-1.9-0.3-1.7-2.1-2.3-4.1c-0.6-2-2.1-3.6-4-4.8c-2.6-1.7-4.1-1.5-6.6,0.7
		c-6.3,5.6-5.6-5.8-16.2-2.3c-4.5,1.5-2-4.2-9.7-3.9c-1,0-1.8-0.5-1.8-1.3c0-2.9-1.9-4.8-4.6-6.2c-10.4-5.7-9.3,1.3-21-4.3
		c-6.7-3.2-4.6,0.1-17.8-0.8c-3.1-0.2-4.7,1.4-3.5,3.8c3.3,6.5-2.3,10.9-5.3,15.5C226.5,199.6,224.7,203.4,228.8,204.5z"/>
	<path d="M282.6,171.9c3.8-0.9,7.2-2.3,6,0.9c-3.5,9.3,13.5,3.4,25.1,0.2c8.8-2.4,13.6,1.3,17.5-2.5c6.1-5.8,4.7-12.7-3-10.9
		c-11.9,2.7-6.7-11.6-14.7-8.2c-2.9,1.2-6.5,3.9-3.3,6.8c4.6,4.1,2.7,10.2-8.4,3.9c-10.4-5.9-9.4-3.3-15.7-6.3
		c-4.5-2.2-7,0.4-15.3,9.6C266.7,169.9,276,173.4,282.6,171.9z"/>
	<path d="M507.4,578.5c-0.8,0.2-1.8,0.4-1.8,1.2c-0.1,0.7,0.6,1,1.2,1c4-0.5,7.7-0.3,11.2,1.6c0.5,0.3,1.4,0.4,1.8,0.2
		c5.3-2.4,16.3-2.1,12.7-5.4c-7.2-6.5-10.6-5.7-15-5.4c-5.5,0-7.3-0.9-6.8,2.6C511.3,577.4,511.3,577.4,507.4,578.5z"/>
	<path d="M493.6,564.3c-3.3-1-6.4-2.3-8.9-4.4c-2-1.7-2-1.7-15.8-6.1c-9.4-3-20,2.2-18.7,5.1c0.9,1.9,7.3-3.2,10.3-1.3
		c4,2.5,9.3,1.9,13.2,4.3c3.5,0.3,5.9,2,8.2,4c1.5,1.3,3.4,2.3,4.4,4c1.4,2.3,9.1,2.5,12.3,2.2C502.7,571.4,504.6,567.5,493.6,564.3
		z"/>
	<path d="M384.5,153.5c3.8,2.1,7.6,4.4,12.5,4c1.1-0.1,2.3-0.1,3.1,0.6c2.6,2.5,5.1,5,4.9,8.2c-1.4,4.9,3.2,7.8,8.7,9.9
		c6.6,2.4,7.9-3,12.3-0.5c3.2,1.9,5.4,1.2,17.9,0.9c8.5-0.2,7.5-2.2,12-0.4c5,1.9,14.5,0.7,16.5-3.1c4.5-8.5-8.7-12.7-21.4-9.3
		c-6.3,1.7-11.6,4.8-22.1,2.9c-4.3-0.8-8.3-1.8-11.8-4.3c-1.4-1-2.9-1.5-2.1-3.4c0.2-0.4,0-1.2-0.3-1.5c-2.7-2-5-4.6-9.5-3.4
		c-2.7,0.8-5.1-0.3-7.2-1.7C385.4,144.2,379.1,150.5,384.5,153.5z"/>
	<path d="M871.9,347.2c-0.8,4.9,5.8,0.7,8.5,6.1c0.6,1.1,4.9,3.2,0.5,5.7c-1.7,1-5.3,1.8-4.8,3.9c1.5,5.8-5.5,7.3-2,9.3
		c2.8,1.6,4.8,2.1,2.1,4.2c-2.9,2.3-6.4,5.4-2.7,6.5c0.5-0.1,1.5-0.1,2.1-0.5c4.6-3,7-1.2,11.1-2.1c3.6-0.8,7.3-1.1,11-1.1
		c4.8,0.1,7.6-1.9,7-3.4c-2-5.5,8.3-8.6-0.4-12.7c-5.6-2.6-0.1-1-10.6-12.1c-5.4-5.7-3.3-7.2-7.7-9.9c-4.3-2.7-1.2-3.7,1.6-9.5
		c0.9-1.9-0.1-3.3-2.4-3.7c-2.8-0.5-4.9,0.3-6.2-1c-1.6-1.6,0.5-2.6,1.1-3.8c0.8-1.5-0.1-3-2.1-3.3c-7.1-1.1-6.4,4.1-12.3,9
		c-1.3,1.1,2.8,9.9,3.6,11.3C870.8,342.5,872.3,344.5,871.9,347.2z"/>
	<path d="M777.8,220.8c-0.6-2.1-7.2-1.1-12.8-3.1c-5-1.7-1.6-3.1-1-8.4c0.2-1.9,3.7-2.8,6.9,1.1c2.5,2.9,4.6,6.7,10.6,5.9
		c3.9-0.5,6-3.4-0.2-10c-3.8-4.1-7.2-6.2-3.9-7.2c9.3-2.9-0.1-8.4,5.2-11.2c2.6-1.4,7.2-1.8,7.2-6.2c0-3,4.9-2.9,5.6-5.7
		c0.5-2.1-1.9-2.6-3.2-3.7c-3.9-3.3,3.7-3.3,2.9-7.7c-0.6-3.4-1.3-6.9-5.3-8.9c-3.7-1.9-2.1-4.1-0.7-4.7c2.9-1.2,7.3-0.2,11.5-1.6
		c2.1-0.7,2.7-2.4,1.2-4c-1.7-1.7-4.1-2.5-4.5-5.2c-0.9-6-10.9-2.1-10.5-7.1c0.2-2.7,1.7-4.9,4.3-6.5c7.9-5.2,3.1-8.2,9-10.2
		c2.5-0.9,4.4-2.3,5.3-4.5c0.9-2.1,3.7-2.4,5.5-3.7c1.9-1.3,1.7-3.8,3.9-4.9c12.2-6.1,23.9-9.6,11.8-15.9c-7.3-3.8-6.2,0.4-15.5,0.8
		c-7.1,0.3-4.8,4-17.4,3.2c-10.5-0.6-9.7,0.6-16.8,6.7c-0.1-2.6,2-4.6,2.7-7c1.4-5.2-2.8-6.6-6.9-5.3c-6.2,2-13.6,8.8-15.5,7.4
		c-0.3-0.2-0.5-0.7-0.4-0.9c4.3-8.8,1.6-6.8,15.7-9.3c9.5-1.7,10.2-5.5,6.6-6.8c-3.3-1.2-14.7-3.6-25.1-7.9
		c-12.1-5-24.8-5.3-38.3-3.8c-37.5,4.4-35.8,4.3-37.3,5.2c-5.8,3.6-9-1.5-22.3,1.1c-11.5,2.2-7.4,4.3-11.2,6.5
		c-4.3,2.5,0.1,4.8,2.3,6.9c0.8,0.8-0.5,1.8-1.3,1.8c-6.2-0.3-19.6-10.7-22.2-3c-1,3.1-1.9,4-8.5,1c-4.3-2-4.1,2.8-8.2-0.6
		c-3-2.4-7.1-1.3-10.9,0.4c-9.8,4.4-20,0.3-28,11c-1.2,1.6-2.8,3.3-5,3c-5-0.6-5,2.2-17.9,8.3c-1.5,0.7-3,1.4-4.5,2.3
		c-2,1.2-1.8,3.1,0.5,3.8c6,1.6,10.7,1,10.2,4.9c-0.8,6.8-7.4,7.8-14.2,7.5c-10-0.5-10.4,4.6-20.2,5.5c-2.5,0.2-4.8,0.9-5.2,3.4
		c-0.4,2.4,1.8,3.6,3.9,4.6c5.6,2.6,17.2,7,22.7,3.9c5.5-3.2,8.9,3.5,0.6,2.8c-2.2-0.2-4.3-0.5-6.4,0.4c-4.5,2-6.7,0.8-10.7,2.2
		c-1.8,0.6-1.9,2.9,0.3,3.2c5,0.7,8.9,0.2,8.7,5c0,1.2-0.1,2.3,1.1,2.9c3.5,1.9,7.2,3.6,11.5,1.3c4.8-2.6,5.2,1.6,13.1-1.7
		c5.9-2.5,33.3-1.5,45,29.9c0.8,2.1,1.3,4.2,3.5,5.8c3.5,2.4-0.4,5.5-1.6,9.6c-0.6,2,1.6,5.5,7.8,2.2c4-2.1,5.3-0.1,13.3,9
		c0.6,0.7-0.4,2-1.4,2.1c-4.1,0.1-4.5-1.3-9.4-1.9c-1.9-0.2-3.1,1.4-1.3,2.9c4.7,3.9,18.1,3.4,16.3,7.4c-1.9,3.9-2.2,8.7-8.1,10.6
		c-2.5,0.8-5.9,5.7-8.2,10.3c-2.2,4.6,2.8,3.1,2.1,9.8c-0.7,6.3,3.8,5.2,6.2,14.1c1.2,4.5,7.2,1.4,6.3,5.8
		c-1.7,8.4,6.9,15.8,14.7,24.1c5.3,5.7,9.2-2.9,14.3,4.1c1,1.4,1.9,4.9,7.2,4.6c2.5-0.1,4.7,1.4,6.5-2.2c2.3-4.7,5.3-9.3,4.2-14.7
		c-0.3-1.1,0-6.4,3.9-8.3c4.7-2.3,5.6-5.3,4.3-9.7c-1.5-4.8,1.6-8.5,7.2-10.2c9-2.7,6.5-5.1,10.6-4.7c5.3,0.5,9.7-1.7,14.2-3.4
		c2-0.8,3.5-2.3,4.3-4c1.9-4.3,5.8-7.2,9.3-10.5c4.6-4.3,7.9-2.5,14.5-3.7c15.7-3,19.8-4.1,23.8-8
		C772.9,222,778.7,223.9,777.8,220.8z"/>
	<path d="M538.8,220.8c-4.9-2-8.6-5.5-13.6-7.3c-5.5-1.9-4.4-5.6-11.4-5.7c-15.6-0.1-6.6-9.1-24.7-11.9c-9.9-1.6-8.6,4.8-14.3,3.3
		c-5.1-1.3-5.6,0-6.4-4c-0.4-2-0.9-3.9-2-5.8c-1.6-2.5-4-3.8-7.4-3.6c-4.2,0.2-8.2,0.8-12,2.4c-8.8,3.6-5,8.3-5.2,12.5
		c-0.1,1.9-3.3,3.1-4.3,0.4c-3.3-9.3,1.8-10.2,3.7-12.1c6.2-6-14.7-7.5-18.9,3.1c-2.8,7-6,7.3-4.6,13.3c1.1,4.6,4.7,4.5,9.2,5.9
		c0.6,0.2,0.9,1.1-0.2,1.6c-0.4,0.2-0.9,0.2-1.2,0.3c-2.1,0.9-2.4,2-1.2,3.4c3.8,4.5,8.4,1.4,11.7,3.8c8.1,6,28,0.1,32.1,3.5
		c1.7,1.4,2.6,4.8,7.9-0.5c3.2-3.2,5-4.4,14.1,4.4c2,1.9-0.3,3.2-0.3,5.1c-0.1,3.5,5.5-1,9.8,1.2c6.2,3.1,14.9,10.1,11.2,16
		c-4.9,7.5-9,4.8-8,9.8c1.6,8-14.4,1.6-19.9,7.9c-3.2,3.7,3.9,8,7.3,6.6c3.5-1.4,7.3-0.8,10.8-1.9c1.9-0.6,3.4,0,4.8,1
		c23.4,16-4.7,5.9,37.9,20.2c1.3,0.4,2.6-0.5,2.5-1.7c-0.1-1.1-0.7-2.1-1.4-3c-0.8-1.2-2.5-2.1-2.4-4c4.2-0.6,9.7,4.7,12.3-1
		c0.6-1.4,1.4-2.9,0.7-4.3c-2-3.9-3-8.3-8.8-10.1c-10.8-3.4-9-21.1,1-10.5c2.9,3.1,4.6,6.7,8.7,7.9c5.4,1.6,3.9-3.9,13.7-11
		c1.9-1.4,1.3-4.4-1-5.1c-3.4-1.1-6.4-3.3-10.2-3.2c-3.2,0.1-4.9-1.1-5.8-3.4c-1.9-4.7-2-0.4-10.9-9c-2.3-2.3-2.5-2.3-0.7-4.9
		c2.4-3.5-3.2-1.8-1.1-6.1C541.1,222.8,540.6,221.5,538.8,220.8z"/>
	<path d="M1177.9,207.7c6.8,0.8,1.3,6.3,10,7.2c2.2,0.2,4.3,0.5,5.1,0.6c5.2,0,6.6,0.3,7.4-1.1c1.3-2.1-1.5-3.1-3-4.3
		c-11.3-8.9,1.5-27.6,15.8-34.2c6.5-3,5.6-3.9,9.6-5.6c6-2.4,4.4-5.5,11.1-6.3c7.9-1,14.8-4.3,22.3-6.1c8-2,11-7.1,5.3-10.2
		c-7.5-4.1-14.8,2.6-25.6,7.6c-7.9,3.7-10-1.5-13.7-0.1c-3.8,1.4-8.2,1.8-11.2,4.3c-4.6,3.8-9.5,6.9-16.1,7.7
		c-1.9,0.2-3.2,1.5-2.8,3.2c1.2,5.6-3.8,8.1-6.7,10.5c-4.6,3.9,2.1,6-4.5,8.7c-1.8,0.7-3.4,1.8-3.7,3.6c-0.4,3.1-2.5,5.3-4.4,7.8
		C1170.3,204.2,1171.3,207,1177.9,207.7z"/>
	<path d="M388.8,116.3c1.4,0.9,3.6,1.4,4.1,2.5c1.1,2.2,3.1,2.8,5.4,3.5c5.6,1.6-1.8,4.8,5.1,8.4c3.7,1.9,4.5,8.2,13.2,4.3
		c1.4-0.6,2.6-1.2,4.3-0.8c6.8,1.8,4.2-4.9,9.6-4.5c1,0.1,2-0.3,2.8-1c0.5,1.6-0.6,3.1-1,4.6c-1.3,4.4,4.9,1.4,6.7,3.8
		c1.1,1.5,2.5,2.9,2.9,4.6c-2.4,0.9-3.9-1-10.1-2.2c-2-0.4-3.3,1.2-2.7,2.7c0.6,1.5,2.9,2.6,2.1,4.4c-0.9,2-3.6,1.7-5.6,2.3
		c-6.5,1.9-5.3,6.3-2.5,6.2c7.1-0.4,12.5,4.2,22.4,2.1c3.2-0.7,13.8-2,19.2,0.3c7.8,3.3,21-3.1,16.3-6c-0.5-0.3-1.2-0.5-1.7-0.8
		c-6.3-3.2,3-3.8,3.5-8.2c0.7-6.2,6.7-0.3,12.3-7.1c2.2-2.7,4.7-5.3,3.5-8.9c1.9-3.2-3.5-6.3,9.3-8c4.2-0.6,6.5,2.6,15-6.8
		c7.4-8.1,13.1-8.2,26.4-13.4c1.1-0.4,2.5-1.1,2.4-2.3c-0.1-1.6-1.7-1.2-4.3-1.5c-1.6-0.2-4.5-2.5,9.2-3.8
		c6.3-0.6,19.9-5.9,13.2-8.8c-2.7-1.1-7-0.7-11.9-5.2c-2.7-2.5-6.6-1.7-10.4-0.5c-6.5,2.1-5.8-1.8-15.6-2.3
		c-15.6-0.8-17.8-0.2-21.5-1c-2.5-0.5-4.7-0.4-6.8,0.9c-4.3,2.6-7-1.1-10.6-0.2c-5.8,1.4-11.7,1-17.5,0.7c-6.5-0.3-11.5,3-17.4,4
		c-0.9,0.2-1.7,1.1-2.4,1.8c-3,3-2.3,5.3-7.8,4c-5.4-1.3-8.4-2.9-11-0.4c-3.2,3.1-9.3,3.5-14.5,4.2c-15.2,2-12.9,5.8-11.5,5.9
		c2.6,0.3,4.7-0.2,5.4,1.2c1.4,3,4.6,4.8,6.6,7.4c4.5,5.8,11,3.2,14.6,3.3c1.5,0,2.5,1.8,1.6,2.9c-0.7,0.9-1.7,1.7-2.4,2.6
		c-3.3,4.3,3.2,4.4,3.1,7.2c-8.4-0.7-5.6-1.5-9.5-7.4c-2-3.2-4.1,1.8-7.1-1.8c-3.1-3.8-8.5,0.3-11.3-5.2c-4-7.9-13.2-7-13.9-5.8
		c-1.4,2.5-5.5,3.1-6,6.2c-0.2,1.4-2,1.8-3,2.8c-1.2,1.3,0.5,2.9-0.4,4.2c-0.2,0.3-0.6,0.6-0.8,0.9
		C386.8,114.1,387,115.2,388.8,116.3z"/>
	<path d="M855.9,371.6c5.2-4.3,10-0.8,10.1-7.6c0-1.9-1-5.5,1.7-9.5c2.8-4.1-0.7-8.6-6.8-8.6c-9.3,0.5-3.9,4.6-11.5,8.6
		c-5,2.6,3,3.6-1.6,10.4C841.8,374,850.5,376.1,855.9,371.6z"/>
	<path d="M1810.3,218.5c-6.2,0.6-3.9,5.4-3.8,8.9c0,1.4-1.9,2.2-3.3,1.3s-2.7-1.8-3.9-2.9c-7.9-6.7-16.4-1.8-45.1-4.4
		c-3.2-0.3-3.9-2.2-5.1-4.4c-8.8-16.9-36.1-1.3-43.6-12.3c-2.2-3.3-4-5.8-9.8-7.6c-10.7-3.3-21.7-5.4-33.2-5.7
		c-9.1-0.2-16.1,1.4-19,8.7c-3.2,7.9,1.3,6.1-28.7,6.3c-2.9,0-5.6-0.5-8-2c-7.5-4.8-7.7,0.7-9.3,2.8c-6,7.9-16.3-6.7-11.5-14.7
		c4.6-7.6-13.2-10.5-23.1-11.2c-11.9-0.9-7.1,7.2-14.1,7.2c-6.3,0-12.6,0.6-18.9-0.6c-21.7-3.9-30.4-5.5-37.9-9.7
		c-3.7-2.1-5.3,0.6-13.2,6.2c-6.4,4.4-8,1.8-7.4,0.1c1.9-5.9,51.8-20,26.1-31.1c-18.5-8-27.6,1-32.5-7.4c-4.3-7.4-15.3-8-22.3-2.9
		c-6.8,5.1-7.6,10.5-27.4,14.8c-1.9,0.4-4.1,0.5-5.6-0.8c-2.9-2.4-4.8-2.2-24.3,2.4c-9.8,2.3-23.3,8.1-26.7,16.8
		c-2.3,6.1-7.6,4.3-19.6,4.8c-19.3,0.9-13.3,12.1-13,13.5c0.9,4.1-4.7,3.5-9.7,2.8c-4.4-0.6-8-0.1-11,3.1c-4.1,4.3-6.5-0.6-6.8-1.8
		c-2.2-7.7-5.4-0.6-7.4,0.7c-6,3.8-4.2,5.5-1.3,10.3c5.2,8.4-2.8,8.5-0.1,16.4c1.6,4.8,4.4,10.4,1.3,10.6c-7.2,0.4-11.7-30.9-7-39
		c2.8-4.8-9-8-16-4.6c-15.9,7.9-20.4,20.7-9.5,33.8c1.5,1.8,3.1,3.5,3.7,5.7c0.3,1.4-1.1,2.7-2.7,2.2c-11.3-3.4-16.4-10.8-34.4-12.4
		c-9.2-0.8-4.6,5.2-6.3,9.8c-0.6,1.6-2.3,2.3-4.1,1.6c-2.6-1.1-4-4.1-12-1.3c-9.1,3.1-15.2,5-20.2,1c-7.8-6.2-26,11-36.5,14.5
		c-3.4,1.1-6.2-0.6-6.2-3.6c0-1.3,1.7-9.9-2.2-10.6c-1.2-0.2-2.2,0.3-2.8,1.1c-2.8,4.7-6.2,9.2-3.4,14.9c3.2,6.5-7.7,5.2-10.7,5.3
		c-9.7,0.2-4.9,15.2-20.3,12.8c-3.8-0.6-5.7-2-7.2,1.1c-0.2,0.3-0.2,0.7-0.3,1.1c-1,2.2-2.8,2.6-4.9,1c-2-1.5-3.2-2.8-5.8-12
		c-0.6-2,0.6-3,3.1-3.2c12.5-0.9,15.9,4.2,25,0.4c9.2-3.8,10.3-12.7-9.4-19.4c-20-6.7-20-10.2-35.9-12.8c-4.5-0.7-14.1-1.5-11.5-4.5
		c0.5-0.6,1.3-1,1.8-1.6c3.3-3.7-2.7-5.5-4.1-5.3c-3.5,0.6-7.4-1.6-10.7,0.9c-2.3,0-4.8,0.7-6.9-0.7c-3.3-2.1-5.1,2.1-12.6-0.1
		c-1.5-0.4-3.4,0.1-3.8,1.5c-1.7,5.6-7.8,4.4-10.5,6.2c-1.7,1-3.4,1.6-5.4,1.5c-4.7-0.1-7,3.3-10.5,5c-0.8,0.4-1,3.4-1.3,4.1
		c-0.7,1.7-2.9,2.4-4.8,1.5c-1.4-0.7-4.5-4.2-7.8-1c-1.5,1.5-1.1,4.5,2.3,4c0.6-0.1,1.3-0.3,1.9-0.4c2-0.2,2.9,0.8,2.2,2.3
		c-3.3,7.1-13.3,6.5-18.9,19.7c-11.3,26.6-43.1,26.4-38.9,45.2c0.6,2.8,2.5,5.5,1.7,8.5c-0.1,0.4,0.4,1.1,0.8,1.4
		c1.5,1.1,1.4,2.5,1.2,4c-0.7,7.7,9.3,8.8,16.3,3c5.3-4.5,5.9-6.9,8.4-6.3c3.5,0.9,2.3,5.2,6.6,15c5.8,13.3,2.8,9.7,4.2,13.7
		c0.9,2.6,3.1,3.4,6,2.1c11.2-5.1,12.7-5.9,15.7-10.9c1.9-3.1-6.6-9.9,4-15.4c9.1-4.7,7.5-10.8,1.8-14.3c-1.5-0.9-5.1-2.3-4.1-7.3
		c1.5-7.5,2.3-9.8,7.1-12.3c9.8-5.3,16.7-8.1,15.9-15.7c-0.8-7.4,12.3-10.2,18.4-6.8c3.8,2.1,2,5.8-1.7,8.1c-8,5-8.8,10.7-15.7,13.8
		c-7,3.2-0.5,8.9-1.6,14c-1.7,7.4,4.3,7.6,6.5,9.2c5.5,4.1,11.1,0,17.4-0.6c3.7-0.3,7.3-0.6,10.8-1.9c4-1.5,7.3,3.3,3.7,5.5
		c-10.2,6.2-13.4-2-24.2,3.6c-5.6,2.9-1.7,5.6,0.9,9.7c2.8,4.3-0.7,7.5-3.7,5.8c-2-1.1-5.2-5.1-8.7-1.3c-2.5,2.7-4.1,5.8-4.1,9.1
		c-0.1,5.4-4.1,9.1-7,13.3c-1,1.4-2.7,1.7-4.6,1.1c-1.4-0.5-5.8-3.8-10.9-0.5c-3.6,2.3-7.9,2.9-11.9,4.5c-2,0.8-3.8,0.8-5.2-0.8
		c-3.5-4.2-8.2,1.7-11.8,0.5c-18.6-5.9-0.4-13.3-4.4-18.3c-0.9-1.1-1.3-2.3-1.3-3.6c0-0.9,0.3-2-0.8-2.5c-1.4-0.7-2.8,0.1-5.3,2.4
		c-11,9.8-1.2,11.4-0.6,20.5c0.2,2.6-1,4.3-4.2,4.7c-2.7,0.4-4.9,1.4-7.1,2.5c-16.3,7.8-13.3,15.8-21.2,17.1
		c-6.8,1.2-3.9,5.5-10,8.7c-3.3,1.8-6.5,3.7-10.8,2c-3.6-1.4-0.4,6.3-6.5,5.9c-3.4-0.2-5-1.6-8.8,0.4c-5.7,3.1,3.7,7,6.5,7.7
		c4.9,1.3,4.7,6,8.3,8.1c3.3,1.9,1.2,12.6,0.1,15.9c-0.7,2-2.4,3.2-4.8,3.1c-5.6-0.4-11.3,0.4-16.9-1c-3.8-0.9-7.8-0.7-11.7-0.6
		c-4.5,0.1-8.3,3.6-7.3,6.8c3.7,11.3-4.3,22.3-0.3,27.3c0.7,0.8,0.6,2.1,0.7,3.2c0.7,4.6,0.8,4.8,6.5,4.2c5.9-0.6,6.7,2.6,8.1,4.2
		c4.6,5.1,7.2-1.6,19.1-2.2c3.4-0.2,5-2,11.3-8.6c5-5.3-3.7-10.6,8-17.3c5-2.9,11.8-4.1,10.6-10.3c-0.5-2.7,1-6,5.7-5.7
		c5.8,0.4,10,3.4,16.1-0.9c1.8-1.3,3.6-2.6,5.5-3.9c5.2-3.4,9.7,0.2,12,5.3c4.2,9.3,15.1,13.2,18.7,15.5c5,3.2,8.7,7.1,9.5,12.5
		c0.1,0.8-0.2,1.8,0.7,2.5c4.3-3.3,4.3-3.3,2.8-7.7c-0.8-2.5,0.4-3.6,2.9-3.7c1.8,0,3.6,1,4.3-0.1c0.9-1.4-0.5-2.4-6-5
		c-5.8-2.8-4-4.8-8.8-5.2c-7.7-0.6-4.3-8.8-11.8-12.8c-4.1-2.2-3.8-5.4-2.9-8.8c0.6-2,3.3-2.7,5.1-1.2c1.2,1,2.2,2.3,4.1,2.6
		c6.3,0.8,3.5,7.4,10.4,9.8c4.1,1.4,7.2,4.1,11,5.8c3.7,1.7,5.7,4.5,5.9,8c0.5,11.4,12.5,16,12.4,25.3c0,1.1,1.6,3.5,4.4,3.3
		c4.2-0.2,0.8-5.3,6.8-6.3c2.2-0.4,2.5-1.8,0.7-3.3c-2.4-2-3.9-4.3-4.6-7.1c-0.6-2.7-0.9-2.7,2.5-4c1.6-0.6,2-1.9,2.9-2.8
		c3.3-3.2,10.3-2.1,11.5,2c0.6,2.1,0.9,4.2,2.1,6.2c1.4,2.3-3.9,4.6,0.6,7.4c1.3,0.8,1.8,2,2.5,3.1c3.8,5.9,6.9,5,10.3,7.1
		c7.2,4.5,7.2-4.9,14.4-0.7c3.4,2,4,4.4,12.2,0.3c1.3-0.7,2.8-1,4.4-0.9c3.3,0.2,4.3,1,4.1,3.7c-0.4,9.1-3.2,17.6-7.5,25.9
		c-1,1.9-2.1,3-4.7,3.4c-7.1,1-7.8-3.6-18.4,0c-3.3,1.2-6.8,1.2-10.3,0.6c-8.1-1.5-21.3-4.2-27.1-8.9c-5.6-4.5-15.5,0.4-16.5,6.8
		c-0.4,2.5-0.3,5.3-4.9,5.2c-6.3-0.1-9.8-3.7-15-8.1c-4.3-3.6-9.3-5.9-15.5-6.5c-10.1-1-12.4-5.9-11.5-8.8c1.4-4.6,0.5-8.9,0.6-13.4
		c0-0.4,0.2-0.7,0.1-1.1c-0.4-1.9-6-4.7-10.5-2.8c-7.7,3.2-27.5-0.8-53.8,9.9c-2.3,1-4.8,1.8-7.2,2.5c-10.2,3-14-6.6-17.7-1
		c-10.3,15.9-19,19.8-19.1,28.8c-0.1,7.2-3.9,12.6-12.3,15.3c-0.4,0.1-0.8,0.3-1.2,0.5c-4.6,1.4-7.4,4.2-9.6,7.8
		c-4.3,7.4-8.2,14.9-12.3,22.4c-5.6,10.3,0.7,14.1,0.4,29c-0.3,14.4-8.3,11.9-5.7,18.4c0.8,2.1,1.5,4.2,1.8,6.4
		c0.7,7.4,7.6,7,21.1,27.3c5.8,8.8,13.3,12.4,19.7,17.3c10,7.7,19.2-3.6,30.5,0.3c11.3,3.9,5.8-2.3,33.7-7c5.7-1,7.2-0.3,10,4
		c3.8,5.8,10.2,5.2,13.9,5.6c10.3,1,13,6.8,11.5,10.5s0.3,7.5-3.1,11.6c-8.3,9.9,12.8,23.4,14.9,30.6c5.3,18.2,13.1,36.9,1.8,48
		c-10.2,10-0.3,30.8,7.2,42.3c6.1,9.3-0.5,15.7,9.5,33.8c2.4,4.3,5.1,8.5,7.7,12.7c12.6,20.6,1.6,9,7.8,23.8
		c4.4,10.3,15.9,4.3,21.3,2.2c9.6-3.7,9.8,2.4,16.9-1.3c7.6-3.9,13.1-1.6,22-15.8c4.2-6.6,7.7-13.5,13.4-19.4
		c8.6-8.8-5.6-10.8,8-18.6c3.7-2.1,10.5-4.8,9-12.1c-2.1-10-8.2-15-2.5-18.4c5-3,3.3-5,11.3-9.8c4.3-2.6,11.2-6.2,15.7-9.8
		c6.8-5.5,0.8-8.6,1.2-14.3c0.9-15.6,1.9-17.6-1.6-21.3c-4.3-4.5-3.1-7.8-4.8-17.3c-1.6-9.3,3.9-9.4,6.3-16.8
		c4.1-13.1,14.4-17.5,26.3-25.5c7-4.7,8.8-6.3,24.9-32.5c3.1-5,5.2-10.5,6.3-16.1c0.3-1.6,0.7-3.3,0.3-4.9
		c-1.4-6.1-13.2,2.5-23.2,2.4c-10.2-0.1-10.4,5.2-14.5,1.3c-2.3-2.2-4.2-4.7-4.4-7.8c-0.1-1.5-0.3-3.1-1.9-3.9
		c-5.3-2.8-5.4-6.2-11.1-11.3c-3.1-2.8-9.1-5.7-9.3-12c-0.3-8.6-11.4-7.4-10.5-18.6c0.7-8.1-5.6-9.3-6.9-16.2
		c-1.8-9.4-13.5-23.2-13.1-28.3c2.1,0.8,4.1,1.5,6.1,0.1c2.7-1.9,2.9,2.8,8.4,9.9c7.1,9.3,4.4,11.1,8,13c5,2.7,4.3,6.2,7.6,17
		c2.3,7.4,5.9,3.8,8.8,11.8c2.3,6.1,11.1,10.7,10.1,16.8c-1,6.3,4.1,22.2,11.7,18.7c6-2.7,14.7-4.4,17.2-6.2
		c11-7.9,20.3-5.3,22.1-10.7c1.9-5.7,13.3-5.5,15.6-7.9c2.6-2.6,13.3-9.7,14.3-15.3c0.2-1.1,1.1-2,2.2-2.6c3.8-1.9,5.1-5.4,7.3-8.3
		c1.1-1.5,1.1-3.2-0.4-4.6c-3-2.8-5.2-6.2-9.9-7.7c-4.1-1.3-6.6-4.1-7.1-7.9c-0.1-0.5-0.2-1.1-0.4-1.6c-0.4-1.2-2-1.5-3.1-0.6
		c-4.5,4.2-7.3,9.3-16.5,9.4c-5.5,0-7.3-1.4-7.4-6.2c0-1.1,0.6-2.3-2.1-4.2c-19.4-13.4-15.4-33.4-3.4-22.1c2.6,2.5,5.1,5,7.7,7.5
		c2.3,2.2,4.6,4.4,6.8,6.7c2.9,3,6.7,3.8,11.1,3.6c2-0.1,3.8-0.7,5.6-1.4c2.2-0.8,3.3-0.5,4.4,1c0.6,0.8,1.1,1.6,1.6,2.4
		c3.4,5.4,8.6,4.1,17.4,5.8c17.1,3.3,27.3-4.4,32.6,1.5c4.1,4.6,5.5,9.3,12.7,11.2s1.5,3.2,1.4,5.2c0,1.9,4.8,5.3,6.1,6.1
		c6.4,4,7.2-3.4,10.1-2.5c1.4,0.5,1.5,1.7,1.7,2.8c1.6,8.2-6.9,6.9,21.7,65.3c3.5,7.2,5.9,4.4,10.5-2c4.6-6.5,6.7-5.1,6.6-9.7
		c-0.3-7.4,3.1-9.8,0.9-17.9c-0.9-3.3,0.4-5.8,4-7.3c5.4-2.3,8.1-5.7,17-15c6-6.3,12.2-4.9,14.8-13.2c0.1-0.2,0.1-0.3,0.2-0.5
		c5.3-9.7,14-0.2,20-8.2c1.6-2.1,3.8-2.1,5.4-0.7c3.3,2.9,0.9,7.5,7.2,13.3c13.2,11.9,3,33,17.7,20.2c4.5-3.9,7.9,1.1,7.8,3.3
		c-0.7,11.8,8.2,16.8,4.8,32.2c-0.8,3.8-1.9,6.7,0.9,9.4c12.6,12,8.4,36,26.7,36c1.9,0,3.4-1.2,2.1-4.1c-8.2-18.5-10.6-22.3-14.3-25
		c-6.8-5-4.8-8.8-9.4-12.9c-8.9-7.8,3.2-8.9,1.8-18.9c-0.2-1.1,0.7-2.9,2.6-2.3c3.2,0.9,2.1,3.1,8,5.3c5.3,2,3.3,4.5,9.1,9
		c7.1,5.5,4.7,6.1,7.2,8.9c0.8,0.9,2.6,1,3.5,0.3c0.4-0.4,0.9-0.8,1.2-1.3c9.9-12.5,14.7-8.6,17.3-15.1c4.6-11.5-1.9-20.3-16.3-35.6
		c-5.8-6.1,2.6-11.2,9.2-16.3c2.4-1.9,8.1-1.5,10.2,1.8c0.6,1,1.8,1.3,2.6,0.5c5.1-5.1,14-4.1,17.9-8.5c0.8-0.9,2.1-1.4,3.5-1.2
		c6.3,0.9,11-1.8,15.2-5.1c18.8-14.9,11.1-18.6,20.6-26.2c3.3-2.6,7.5-14.2,1.9-24.6c-5.3-9.8-5-11.3-8.1-12.9
		c-9.9-5.3,18.8-15.5,12.1-18.1c-1.4-0.5-2.9-0.9-4.2-1.5c-2.2-1.1-3.8-0.8-5.7,0.7c-4.3,3.4-6.8-0.5-10.4-4.9
		c-1.9-2.3-1.6-3.8,1.4-4.8c8-2.6,11-7.8,13.9-9.7c1.4-0.9,4.4-0.5,3.4,3.9c-0.4,2-1.7,3.4-0.5,4.7c1.7,1.8,6.3-2.4,11.1-3.5
		c4.9-1.1,8.6,1.8,7.8,6c-0.8,4.2-2,4.3,2.8,5.8c8.6,2.7,1.8,5.8,3.4,8.6c1.4,2.5,1.4,4.9,0.5,7.5c-0.8,2.3,0.5,5.3,3.5,4.2
		c15.2-5.5,16.9-4.5,3.7-29.3c-0.8-1.5-0.5-2.9,1.2-3.9c4.5-2.5,7.2-6.3,9.8-10.1c3.6-5.3,5-8.5,10.9-7.9c9,0.9,16.2,0.4,20.8-6
		c1.3-1.7,2.5-3.5,3.5-5.3c11.4-20.2,21.9-21.5,21.6-36.7c-0.2-9.6,4.7-11.3,4.4-19.2c-0.1-3.8-1.5-7.2-4.5-10
		c-7.3-6.9-12.4,5-20.3-2.9c-5.4-5.4-2.1-9.9,4.5-14.9s8.7-8.2,17.7-16.8c7.6-7.3,14.8-7.3,29.2-8.9c23.8-2.7,22.5,2.4,38.1,2.5
		c3.3,0,4.3-0.6,5.4-3.1c1.9-4.2,4.4-15.8,19.7-16.4c9.3-0.4,8.9-1.1,10.5,4.4c1.4,5.1,6.9,0.9,10.9-3.3c5.2-5.4,6-7.4,8.7-6.5
		c6.4,2-1.2,11.4-10.3,13.8c-10.9,2.8-8.4,10.6-26.7,24.8c-3.8,2.9-5.6,6.5-5.5,10.7c0.3,8.4,1.5,23.6,5.7,31.2
		c0.6,1.1,2.5,1.2,3.2,0.2c3.1-4.6,4.4-9.2,10.5-14.3c3.3-2.8,5.6-6.5,8.8-9.4c0.7-0.6,0.9-1.6,1.1-2.5c0.6-2.4,1.8-4.5,3.7-6.3
		c6.3-6-2.9-9.3,9.8-24.3c7.7-9,13.2-9.8,23-5c17,8.3,30.2-20.7,51.7-20.3c4.4,0.1,12.7-1.6,8.2-7.3c-2.1-2.6-10.4-7.5-3-12.3
		c4.1-2.6,8.9-2.9,9.8-7.4c2.5-13.4,21.1,7.2,29.2,10.3c5.5,2.1,7-2.5,8.6-5.9c2.4-5.3,6.8-5.8,9.4-7
		C1919.6,252.1,1831.4,216.6,1810.3,218.5z"/>
	<path d="M1530.2,650.5c4-4.2-4.9-2.5-6.1-8.6c-0.3-1.7-2.6-2.8-4.4-1.7c-4.7,2.8-5.4,8.6-9.2,9.7c-4.4,1.2-7.2,3.9-9.4,7.2
		c-3.7,5.6-8.3,2-10.9,8.7c-3.2,8.3-11.8,1.5-12,8.7c-0.2,6.8,4.5,4,5.9,12.4c0.5,2.9,1.2,5.4,4.6,5.9c1.7,0.3,3.5,0.2,4.8,1.4
		c1.4,1.2,3,1.3,4.8,0.7c4.3-1.5,7.9,1.8,9.8,3c5.2,3.3,10.7-3.4,10.3-8.8c-0.1-1.3-0.1-2.7,0.9-3.7c4.8-4.7,2.8-10,8.1-12.7
		c5.2-2.6,0.4-2.7-3-9.9C1521.4,656.2,1525.9,654.8,1530.2,650.5z"/>
	<path d="M1649.9,432.9c8.1-1.5,8.8,4.7,14.1-0.5c4.7-4.6,8.9-2.4,8.4-6.6c-0.6-5.3-4.8,0-12.9-7.7c-0.8-0.8-1.8-1.5-2.8-2.2
		c-0.8-0.6-2.4-0.1-2.6,0.8c-0.4,2-0.6,4-0.9,5.9c-1.4,7.9-7.3,2.8-7.8,9.7c-0.2,2.4-1.6,6.5,1.5,6c1.8-0.3,1.4-1.5,1.2-2.6
		C1647.8,433.8,1648.2,433.2,1649.9,432.9z"/>
	<path d="M1701.4,802.9c-1.9-5.1-6.3-2.5-7.4-8.5c-1.1-6.2-6.3-7.9-15.3-20.2c-9.3-12.7-3.7-16.2-10.7-18.7
		c-6.5-2.3-5.5-11.8-8.9-17.5c-1.5-2.6-6.1,0.8-6.2,7.5c-0.4,23.9-1.8,32.4-15.5,23.5c-16-10.4-17-10.3-16.4-13.7
		c1.6-9.2,6.9-7.9,4.7-11.4c-1.1-1.8-3.4-2-5.7-1.4c-4.1,1.1-7.6-0.5-11.9-1.8c-6.2-1.9-2.2,0.5-11.1,4
		c-16.5,6.5-5.4,13.5-13.7,13.2c-5.4-0.2-4.4-6.3-10.8-4.5c-4.2,1.2-8.2,2.8-9.7,6.7c-1.3,3.5-4.4,5.7-7.4,8c-0.8,0.7-1.7,1.1-2.9,1
		c-3.8-0.1-3.4,2.9-4.1,6.4c-1.7,9.4-14.8,11.8-25.9,13.3c-11.4,1.5-10.2,7.5-16.7,8.8c-3.8,0.7-5.4,3.3-3.1,14.7
		c2.2,10.5-0.4,7.6,2.3,16.7c12.3,40,8.9,27.7,5.6,36.8c-0.5,1.3-0.1,2.5,0.9,3.6c8.3,8.4,19.1,2.2,23.5,0.1
		c6.6-3.1,8.2-1.5,15.8-2.3c10.5-1,2.1-6.9,19.3-8.5c19-1.7,10.1-8.6,31.8-4.7c10.4,1.9,11,7.1,16.7,17.4c2.7,5,10.5-10.5,12.2-6.2
		c0.9,2.3-1.2,4.9-2.5,7.7c-0.3,0.6,0.7,1.5,1.6,1.1c1.2-0.5,2.2-1.5,3.4-1.5c2.7,0,0.4,3,4.1,4.3c1.8,0.6,2.6,1.8,3,3.3
		c4.6,16.4,21.1,18.7,25.7,15c3.4-2.8,5.9,0,8.5,1.3c6,3,3.5-2,13.1-4.8c4.9-1.4,9.8-2.9,10.6-9.1c0.8-6.5,4-12.8,10.4-23.5
		c7.4-12.5,3.5-9.6,5.6-14.4c1.6-3.5,1.9-7.1,1.8-10.8C1715,808.5,1705.1,812.9,1701.4,802.9z"/>
	<path d="M1642.5,456.3c-5.5,14.2-13.7,9.6-16.8,13.6c-1.9,2.5-3.1,7.1-11.3,6.6c-4-0.2-8.7-0.1-11.1,2.1c-3.8,3.7-6.1,5.3-5.1,6.5
		c0.9,1.1,4.1,0.2,6.7-0.5c8-2.2,11.4-4.6,13.5,0.2c0.5,1.1,0.9,4.2,3.3,3c4.3-2.1,5-6.1,8-5.3c4.9,1.2,9.6-2.8,15.1-3.7
		c1.6-0.3,2.7-1.5,2.7-2.8c0.1-3.3,1.8-6.4,1.8-9.7c0.2-9.3,8.8-11.3,4-19.1c-0.7-1.1-0.8-2.5-1.2-3.7c-1.3-3.5-6.5-1.3-7.6,2.4
		C1643.7,449,1643.4,454,1642.5,456.3z"/>
	<path d="M825.9,264.9c-2.3-2.8-4.8-5.5-7.3-8.2c-3.3-0.5-6.3-2.7-9.9-0.9c-2.1,1-4.5,1.1-6.9,1.3c-19,1.5-16.5,3.6-19.7-0.4
		c-0.9-1.1-1.9-2.7-4.1-1.7c-1.5,0.6-3.4,1.2-3.5,2.9s2.2,2,3.6,2.8c4.2,2.5-3.5,2.7-0.3,6.2c2.5,2.6,0.3,3.9,5.3,6.5
		c15.1,8.2,29.3,6,41.3-4.1C825.4,268.5,826.7,265.9,825.9,264.9z"/>
	<path d="M1822.1,911.9c-3.5-1.2-5.8-3.8-7.8-0.8c-6.7,9.6-7.5,13.9-18,18.8c-5,2.3-7.9,6.1-10.7,10c-3,4.3,5.1,7.4,11,8.2
		c10.8,0.8,12.1-15.4,15.3-16.3c4.3-1.3,6.4-3.9,7.3-7.5c0.3-1,1.6-1.7,2.3-2.6C1824.6,918.1,1826.9,913.5,1822.1,911.9z"/>
	<path d="M1602.8,693.1c0.2,1.4,1.3,2.7,2.1,4c1.9,3.1,4.7-1.1,9.1,2.8c3.6,3.2,15,0.1,19.5,8.3c1.9,3.5,3.8,7.1,0.2,10.7
		c-1.3,1.4,1.5,3.2,3.4,2.7c6.9-1.7,9.5,3.2,18.3,4.5c6.3,1,5.3-2.8,8.7-6.5c3.5-3.8,8-1.3,12,2.1c11.7,9.9,4.9,8.8,22,12.1
		c1.4,0.3,2.9-1.4,1.4-2.6c-6.9-5.5-10.7-6.2-12.4-10.8c-0.8-2-5.4-4.5-1.9-8.3c0.2-0.3,0.2-0.7,0.3-1c-0.6-3.6-5.4-1.3-8.6-6
		c-4.9-7.2-14.5-9.3-22.5-12.2c-4.3-1.6-8.3-4-13.2-4.5c-1-0.1-1.9-0.9-2.8-1.3c-8.6-4.6-7,0.1-17.3,5.4c-4.7,2.4-7.9-2.6-8.5-7.4
		c-0.5-3.6-6.1-9.5-16.2-3.3C1591.3,684.7,1601.6,685.9,1602.8,693.1z"/>
	<path d="M1845,889.8c-6.7,0.5-7.1,2.1-10.7-3.3c-0.9-1.4-1.8-2.4-3.7-2.7c-4.3-0.9-3.5-4.8-4.3-6.7c-1.8-4.3-6.7-5-6.6-2.9
		c0.1,4.9,14.6,12.8,4.8,24.3c-4.4,5.1,8.4,3.2,3.8,12c-0.1,2.9,3,3.7,5.2,2.3c1.9-1.1,6.1-6.8,6.6-9.8c0.2-1.3,0.8-2.5,2.3-3.1
		c4.2-1.8,3.9-5.4,4.7-8.5C1847.3,890.5,1846.1,889.7,1845,889.8z"/>
	<path d="M1512.1,722.1c0.2-1.6-2.7-1.8-6.8-3.5c-14.5-6.2-15.9-7.8-18.7-6.1c-5.8,3.4-9.7-0.5-13.3-2.5c-5.2-2.9-15-0.2-11.6,3.5
		c6.2,6.8,9.6,3,22.5,6.8c7.7,2.3,7,1,22.6,3.5C1509.8,723.5,1512,723.5,1512.1,722.1z"/>
	<path d="M1161.8,747c-0.9-1.4-3.1-1.8-4,0.1c-9.5,18.8-31.6,19.6-24.9,32c2.7,5-0.6,11.2-3.6,14.3c-3.2,3.3-2.3,5,0.8,20.2
		c1.2,6.2,14.7,11.1,21.3-6.9c6.8-18.7,10.1-26.1,11.1-36.5c0.7-7.5,3.5-3.8,3.1-9.8C1162.7,747.9,1163.2,749.3,1161.8,747z"/>
	<path d="M1459.8,690.3c-4.1-4.2-8.1-8.5-9.8-13.9c-0.4-1.1-8-7.8-11.8-10.1c-10.8-6.5-14-9-15.9-12.6c-3.1-5.7-7.8-5-12.3-5.5
		c-5.6-0.7-1.3,4.3,1.6,8.2c10,13.2,28.1,35.9,39.1,47.8c6,6.4,9.2,3.6,9.7,1.5C1461.7,700.5,1463.4,694,1459.8,690.3z"/>
</g>
</svg>
